<svg xmlns="http://www.w3.org/2000/svg" xmlns:xlink="http://www.w3.org/1999/xlink" viewBox="0 0 200 43.64"><defs><linearGradient id="linear-gradient" x1="6.58" y1="6.58" x2="38" y2="38" gradientUnits="userSpaceOnUse"><stop offset="0" stop-color="#91d443"/><stop offset="1" stop-color="#48bfe0"/></linearGradient><linearGradient id="linear-gradient-2" x1="14.39" y1="-1.24" x2="45.82" y2="30.18" xlink:href="#linear-gradient"/><linearGradient id="linear-gradient-3" x1="22.18" y1="-9.03" x2="53.6" y2="22.4" xlink:href="#linear-gradient"/><linearGradient id="linear-gradient-4" x1="-1.24" y1="14.39" x2="30.18" y2="45.82" xlink:href="#linear-gradient"/><linearGradient id="linear-gradient-5" x1="-9.03" y1="22.18" x2="22.4" y2="53.6" xlink:href="#linear-gradient"/><style>.cls-1{fill:#fff}</style></defs><g id="Layer_1" data-name="Layer 1"><path class="cls-1" d="M58.17 30.79A8 8 0 0156 25a7.65 7.65 0 012.25-5.78A7.47 7.47 0 0163.59 17a5.89 5.89 0 015 2.63v-8.51h3.27v21.66H68.6v-2.34A6.06 6.06 0 0163.31 33a7 7 0 01-5.14-2.21zm1.08-5.71a4.86 4.86 0 001.43 3.63A4.64 4.64 0 0064 30.12a4.33 4.33 0 003.27-1.42 5.07 5.07 0 001.34-3.63 5.33 5.33 0 00-1.34-3.71A4.27 4.27 0 0064 19.88a4.45 4.45 0 00-3.36 1.49 5.22 5.22 0 00-1.39 3.72zM91 26.44H78.87a3.54 3.54 0 001.55 2.73 6 6 0 007.71-.8l1.87 2A8.68 8.68 0 0183.45 33a7.78 7.78 0 01-5.56-2.17A7.67 7.67 0 0175.6 25a7.55 7.55 0 012.34-5.82 7.84 7.84 0 015.5-2.18 8 8 0 015.39 1.91A6.59 6.59 0 0191 24.2zm-12.13-2.57h8.9a3.74 3.74 0 00-1.23-3 4.48 4.48 0 00-3-1.05 5.17 5.17 0 00-3.23 1.1 3.53 3.53 0 00-1.44 2.95zM103 17a7.39 7.39 0 015.34 2.16 7.66 7.66 0 012.22 5.75 8 8 0 01-2.2 5.84 6.83 6.83 0 01-10.41-.32v2.34h-3.31V11.12h3.26V20a5.82 5.82 0 015.1-3zm-5.11 8a5.07 5.07 0 001.34 3.63 4.34 4.34 0 003.27 1.42 4.64 4.64 0 003.36-1.4 4.86 4.86 0 001.43-3.63 5.17 5.17 0 00-1.4-3.71 4.47 4.47 0 00-3.36-1.47 4.29 4.29 0 00-3.3 1.47A5.28 5.28 0 0097.85 25zM128.7 26.44h-12.17a3.54 3.54 0 001.55 2.73 6 6 0 007.71-.8l1.87 2a8.68 8.68 0 01-6.54 2.6 7.78 7.78 0 01-5.56-2.17 7.67 7.67 0 01-2.3-5.8 7.55 7.55 0 012.34-5.82 7.84 7.84 0 015.5-2.18 8 8 0 015.39 1.91 6.59 6.59 0 012.22 5.27zm-12.17-2.57h8.9a3.74 3.74 0 00-1.23-3 4.48 4.48 0 00-3-1.05 5.17 5.17 0 00-3.23 1.1 3.53 3.53 0 00-1.44 2.95zM131.8 20.11v-2.8h12.14v2.95l-8.73 9.69h9.2v2.83h-13.2V29.6l8.5-9.49zM148.29 14.15a2 2 0 111.46.61 2 2 0 01-1.46-.61zm3.07 18.62h-3.27V17.25h3.27zM166.94 25.66v-8.41h3.27v15.53h-3.27v-2.83a6.1 6.1 0 01-9.41 1.46 6.25 6.25 0 01-1.62-4.64v-9.52h3.27v8.52q0 4.29 3.56 4.29a4.28 4.28 0 002.95-1.12 4.18 4.18 0 001.25-3.28zM178.21 24.37v8.41h-3.27V17.25h3.27v2.83a5.18 5.18 0 012.12-2.25 6 6 0 013.05-.82 4.94 4.94 0 015 3 7 7 0 015.75-3 5.78 5.78 0 014.25 1.61 6.25 6.25 0 011.62 4.64v9.52h-3.27v-8.53q0-4.29-3.56-4.29a4.32 4.32 0 00-2.9 1.07 4 4 0 00-1.3 3.11v8.64h-3.27v-8.53a5.4 5.4 0 00-.8-3.25 2.92 2.92 0 00-2.48-1 4.28 4.28 0 00-2.95 1.12 4.18 4.18 0 00-1.26 3.25z"/><path d="M31.26 38.09a5.55 5.55 0 005.54 5.54h6.84v-6.84a5.55 5.55 0 00-5.54-5.54h-1.3a8.8 8.8 0 01-8.8-8.79v-1.3a5.55 5.55 0 00-5.54-5.54h-1.3a8.8 8.8 0 01-8.79-8.79V5.54A5.55 5.55 0 006.84 0H0v6.84a5.55 5.55 0 005.54 5.54h1.3a8.8 8.8 0 018.79 8.79v1.3A5.55 5.55 0 0021.17 28h1.3a8.8 8.8 0 018.79 8.79z" fill="url(#linear-gradient)"/><path d="M43.64 21.17a5.55 5.55 0 00-5.54-5.54h-1.3A8.8 8.8 0 0128 6.84v-1.3A5.55 5.55 0 0022.47 0h-6.84v6.92a5.55 5.55 0 005.54 5.46h1.3a8.8 8.8 0 018.79 8.79v1.3A5.55 5.55 0 0036.78 28h6.86z" fill="url(#linear-gradient-2)"/><path d="M43.64 5.5A5.54 5.54 0 0038.32 0h-7.17v6.9a5.55 5.55 0 005.54 5.48h6.95z" fill="url(#linear-gradient-3)"/><path d="M0 22.48A5.55 5.55 0 005.55 28h1.3a8.8 8.8 0 018.79 8.79v1.3a5.55 5.55 0 005.54 5.54H28v-6.91a5.55 5.55 0 00-5.54-5.46h-1.3a8.8 8.8 0 01-8.79-8.79v-1.3a5.55 5.55 0 00-5.52-5.54H0z" fill="url(#linear-gradient-4)"/><path d="M0 38.14a5.54 5.54 0 005.32 5.5h7.17v-6.9A5.55 5.55 0 007 31.26H0z" fill="url(#linear-gradient-5)"/></g></svg>